<?xml version="1.0" encoding="UTF-8" standalone="no"?>
<!DOCTYPE svg PUBLIC "-//W3C//DTD SVG 20010904//EN"
"http://www.w3.org/TR/2001/REC-SVG-20010904/DTD/svg10.dtd">
<!-- Created with Sodipodi ("http://www.sodipodi.com/") -->
<svg
   xmlns="http://www.w3.org/2000/svg"
   xmlns:sodipodi="http://sodipodi.sourceforge.net/DTD/sodipodi-0.dtd"
   xmlns:xlink="http://www.w3.org/1999/xlink"
   id="svg1361"
   sodipodi:version="0.34"
   width="210mm"
   height="210mm"
   xml:space="preserve"
   sodipodi:docbase="/home/ar/src/qt/qsvn/images/svg"
   sodipodi:docname="/home/ar/src/qt/qsvn/images/svg/actionaddlocal.svg"><defs
   id="defs1363"><linearGradient
   id="linearGradient1398"><stop
   style="stop-color:#ffffff;stop-opacity:1;"
   offset="0"
   id="stop1399" /><stop
   style="stop-color:#ffffff;stop-opacity:0;"
   offset="1"
   id="stop1400" /></linearGradient><radialGradient
   xlink:href="#linearGradient1398"
   id="radialGradient1401"
   cx="0.50387299"
   cy="0.47655827"
   r="0.40498659"
   fx="0.50387299"
   fy="0.47655827" /></defs><sodipodi:namedview
   id="base" /><g
   id="g677"
   transform="matrix(0.43603,0,0,0.992696,309.2069,-222.9307)"><path
   style="font-size:12;fill:#ffffff;fill-rule:evenodd;stroke:#000000;stroke-width:22.616;"
   d="M -288 314.4375 L -288 691.3125 L 394.5 691.3125 L 390.2592 447.7559 L 91.7841 447.7559 L 91.784 314.4375 L -288 314.4375 z "
   id="path895"
   transform="matrix(0.798076,0,0,0.895945,-335.9567,27.37151)"
   sodipodi:nodetypes="ccccccc" /><path
   style="font-size:12;fill:none;fill-rule:evenodd;stroke:#000000;stroke-width:19.12416;"
   d="M -1217.625 117.9803 L -978.9339 237.764 "
   id="path733"
   sodipodi:nodetypes="cc"
   transform="translate(957.3643,188.7857)" /><path
   style="font-size:12;fill:#ffffff;fill-rule:evenodd;stroke:#00ff00;stroke-width:0;stroke-opacity:0.5556;"
   d="M -1346.787 62.81964 L -1346.696 176.8854 L -1108.544 176.933 L -1346.787 62.81964 z "
   id="path737"
   sodipodi:nodetypes="cccc"
   transform="matrix(0.851896,0,0,0.893342,897.601,264.7714)" /><rect
   style="font-size:12;fill:#000000;fill-rule:evenodd;fill-opacity:1;"
   id="rect670"
   width="435.831482"
   height="54.0068588"
   x="-507.544556"
   y="561.670959"
   ry="27.0034294" /><rect
   style="font-size:12;fill:#000000;fill-rule:evenodd;fill-opacity:1;"
   id="rect671"
   width="435.831456"
   height="54.0068556"
   x="-501.926086"
   y="469.259216"
   ry="27.0034278" /><path
   style="font-size:12;fill:#000000;fill-rule:evenodd;fill-opacity:1;"
   d="M -474.9375 374.4375 C -489.875 374.4375 -501.9375 386.5 -501.9375 401.4375 C -501.9375 416.4375 -489.875 428.4375 -474.9375 428.4375 L -277 428.4375 L -277 374.4375 L -474.9375 374.4375 z "
   id="path676" /></g><g
   id="g880"><path
   style="font-size:12;fill:#00cc00;fill-rule:evenodd;stroke:#008000;stroke-opacity:1;stroke-width:12.5;stroke-dasharray:none;"
   d="M 184.0625 286.25 C 162.8125 286.25 145.6875 303.375 145.6875 324.6875 L 145.6875 389.5 C 145.6875 410.75 162.8125 427.875 184.0625 427.875 L 307.625 427.875 L 308.5625 551.4375 C 308.6875 572.6875 325.9375 589.6875 347.25 589.5625 L 412 589.0625 C 433.3125 588.9375 450.3125 571.6875 450.125 550.375 L 449.25 427.875 L 571.75 427.875 C 593 427.875 610.125 410.75 610.125 389.5 L 610.125 324.6875 C 610.125 303.375 593 286.25 571.75 286.25 L 448.1875 286.25 L 447.3125 162.75 C 447.125 141.4375 429.875 124.4375 408.625 124.625 L 343.8125 125.125 C 322.5 125.25 305.5 142.5 305.6875 163.8125 L 306.5625 286.25 L 184.0625 286.25 z "
   id="path1418"
   transform="translate(-8.187503,17.03125)" /><path
   style="font-size:12;fill:url(#radialGradient1401);fill-rule:evenodd;"
   d="M 184.0625 286.25 C 162.8125 286.25 145.6875 303.375 145.6875 324.6875 L 145.6875 389.5 C 145.6875 410.75 162.8125 427.875 184.0625 427.875 L 307.625 427.875 L 308.5625 551.4375 C 308.6875 572.6875 325.9375 589.6875 347.25 589.5625 L 412 589.0625 C 433.3125 588.9375 450.3125 571.6875 450.125 550.375 L 449.25 427.875 L 571.75 427.875 C 593 427.875 610.125 410.75 610.125 389.5 L 610.125 324.6875 C 610.125 303.375 593 286.25 571.75 286.25 L 448.1875 286.25 L 447.3125 162.75 C 447.125 141.4375 429.875 124.4375 408.625 124.625 L 343.8125 125.125 C 322.5 125.25 305.5 142.5 305.6875 163.8125 L 306.5625 286.25 L 184.0625 286.25 z "
   id="path1419"
   transform="translate(-8.187503,17.03125)" /></g></svg>
