<?xml version="1.0" encoding="UTF-8" standalone="no"?>
<!DOCTYPE svg PUBLIC "-//W3C//DTD SVG 20010904//EN"
"http://www.w3.org/TR/2001/REC-SVG-20010904/DTD/svg10.dtd">
<!-- Created with Sodipodi ("http://www.sodipodi.com/") -->
<svg
   xmlns="http://www.w3.org/2000/svg"
   xmlns:sodipodi="http://sodipodi.sourceforge.net/DTD/sodipodi-0.dtd"
   xmlns:xlink="http://www.w3.org/1999/xlink"
   id="blank"
   sodipodi:version="0.34"
   width="210mm"
   height="210mm"
   xml:space="preserve"
   sodipodi:docbase="/home/ar/src/qt/qsvn/images/svg"
   sodipodi:docname="/home/ar/src/qt/qsvn/images/svg/actiondeletelocal.svg"><defs
   id="defs1468"><linearGradient
   id="linearGradient1348"><stop
   style="stop-color:#ffffff;stop-opacity:1;"
   offset="0"
   id="stop1349" /><stop
   style="stop-color:#ffffff;stop-opacity:0;"
   offset="1"
   id="stop1350" /></linearGradient><linearGradient
   xlink:href="#linearGradient1348"
   id="linearGradient1351" /><radialGradient
   xlink:href="#linearGradient1348"
   id="radialGradient1352"
   cx="0.48931119"
   cy="0.5234375"
   r="0.48718652"
   fx="0.48931119"
   fy="0.5234375"
   spreadMethod="pad" /></defs><sodipodi:namedview
   id="base" /><g
   id="g677"
   transform="matrix(0.43603,0,0,0.992696,309.2068,-222.9311)"><path
   style="font-size:12;fill:#ffffff;fill-rule:evenodd;stroke:#000000;stroke-width:22.616;"
   d="M -288 314.4375 L -288 691.3125 L 394.5 691.3125 L 390.2592 447.7559 L 91.7841 447.7559 L 91.784 314.4375 L -288 314.4375 z "
   id="path895"
   transform="matrix(0.798076,0,0,0.895945,-335.9567,27.37151)"
   sodipodi:nodetypes="ccccccc" /><path
   style="font-size:12;fill:none;fill-rule:evenodd;stroke:#000000;stroke-width:19.12416;"
   d="M -1217.625 117.9803 L -978.9339 237.764 "
   id="path733"
   sodipodi:nodetypes="cc"
   transform="translate(957.3643,188.7857)" /><path
   style="font-size:12;fill:#ffffff;fill-rule:evenodd;stroke:#00ff00;stroke-width:0;stroke-opacity:0.5556;"
   d="M -1346.787 62.81964 L -1346.696 176.8854 L -1108.544 176.933 L -1346.787 62.81964 z "
   id="path737"
   sodipodi:nodetypes="cccc"
   transform="matrix(0.851896,0,0,0.893342,897.601,264.7714)" /><rect
   style="font-size:12;fill:#000000;fill-rule:evenodd;fill-opacity:1;"
   id="rect670"
   width="435.831482"
   height="54.0068588"
   x="-507.544556"
   y="561.670959"
   ry="27.0034294" /><rect
   style="font-size:12;fill:#000000;fill-rule:evenodd;fill-opacity:1;"
   id="rect671"
   width="435.831456"
   height="54.0068556"
   x="-501.926086"
   y="469.259216"
   ry="27.0034278" /><path
   style="font-size:12;fill:#000000;fill-rule:evenodd;fill-opacity:1;"
   d="M -474.9375 374.4375 C -489.875 374.4375 -501.9375 386.5 -501.9375 401.4375 C -501.9375 416.4375 -489.875 428.4375 -474.9375 428.4375 L -277 428.4375 L -277 374.4375 L -474.9375 374.4375 z "
   id="path676" /></g><g
   id="g749"
   transform="matrix(1,0,0,0.999962,0.68265,0.304565)"><rect
   style="font-size:12;fill:#e20000;fill-rule:evenodd;stroke:#7f0000;stroke-opacity:1;stroke-width:12.5;stroke-dasharray:none;"
   id="rect1324"
   width="464.458893"
   height="141.61792"
   x="136.817352"
   y="308.439087"
   ry="38.4048767" /><rect
   style="font-size:12;fill:url(#radialGradient1352);fill-rule:evenodd;"
   id="rect1357"
   width="464.458893"
   height="141.61792"
   x="136.817352"
   y="308.439087"
   ry="38.4048767" /></g></svg>
