<?xml version="1.0" encoding="UTF-8" standalone="no"?>
<!DOCTYPE svg PUBLIC "-//W3C//DTD SVG 20010904//EN"
"http://www.w3.org/TR/2001/REC-SVG-20010904/DTD/svg10.dtd">
<!-- Created with Sodipodi ("http://www.sodipodi.com/") -->
<svg
   xmlns="http://www.w3.org/2000/svg"
   xmlns:sodipodi="http://sodipodi.sourceforge.net/DTD/sodipodi-0.dtd"
   xmlns:xlink="http://www.w3.org/1999/xlink"
   id="svg757"
   sodipodi:version="0.34"
   width="210mm"
   height="210mm"
   xml:space="preserve"
   sodipodi:docbase="/home/ar/src/qt/qsvn/images/svg/"
   sodipodi:docname="/home/ar/src/qt/qsvn/images/svg/actioncommit.svg"
   transform="matrix(0.427219,0,0,1,155.2967,0)"><defs
   id="defs759"><linearGradient
   id="linearGradient729"><stop
   style="stop-color:#001900;stop-opacity:0.8;"
   offset="0"
   id="stop730" /><stop
   style="stop-color:#00bf00;stop-opacity:0.8;"
   offset="1"
   id="stop731" /></linearGradient><linearGradient
   id="linearGradient648"><stop
   style="stop-color:#000000;stop-opacity:1;"
   offset="0"
   id="stop649" /><stop
   style="stop-color:#ffff00;stop-opacity:1;"
   offset="1"
   id="stop650" /></linearGradient><linearGradient
   xlink:href="#linearGradient648"
   id="linearGradient651"
   x1="2.45333338"
   y1="0.484375"
   x2="-1.33333486e-2"
   y2="0.46875" /><radialGradient
   xlink:href="#linearGradient729"
   id="radialGradient652" /><linearGradient
   xlink:href="#linearGradient729"
   id="linearGradient696" /><linearGradient
   xlink:href="#linearGradient729"
   id="linearGradient732"
   x1="2.00934124"
   y1="3.90623882e-2"
   x2="0.32710284"
   y2="0.79687464" /><linearGradient
   xlink:href="#linearGradient729"
   id="linearGradient733"
   x1="0"
   y1="0"
   x2="1"
   y2="0" /></defs><sodipodi:namedview
   id="base" /><g
   id="g706"
   transform="matrix(0.927768,0,0,0.813073,99.92239,307.6376)"
   style="stroke:url(#linearGradient732);stroke-opacity:0.4588;"><path
   style="font-size:12;fill:url(#linearGradient651);fill-rule:evenodd;stroke:url(#linearGradient732);stroke-opacity:0.4588;"
   d="M 121.25 121.1875 L 121.25 624.3125 C 120.5625 625.5 120.25 626.6875 120.25 627.875 C 120.25 654.375 274.625 675.875 465.0625 675.875 C 655.5 675.875 809.875 654.375 809.875 627.875 C 809.875 627.4375 809.8125 626.9375 809.625 626.5 L 810.1875 626.5 L 810.1875 121.1875 L 121.25 121.1875 z "
   id="path667"
   transform="matrix(1.309138,0,0,0.76864,226.0661,-3.238037)" /><path
   sodipodi:type="arc"
   style="font-size:12;fill:#808080;fill-rule:evenodd;stroke-width:1;stroke:url(#linearGradient732);stroke-opacity:0.4588;"
   id="path653"
   d="M 500.4638 660.0837 A 162.9208 33.60428 0 1 0 174.6223 660.0837 A 162.9208 33.60428 0 1 0  500.4638 660.0837 z"
   sodipodi:cx="337.54306"
   sodipodi:cy="660.08374"
   sodipodi:rx="162.920776"
   sodipodi:ry="33.6042786"
   transform="matrix(2.770758,0,0,1.098629,-99.04074,-634.5985)" /><path
   sodipodi:type="arc"
   style="font-size:12;fill:#808080;fill-rule:nonzero;stroke-width:1;fill-opacity:0.4667;stroke:url(#linearGradient732);stroke-opacity:0.4588;"
   id="path702"
   d="M 500.4638 660.0837 A 162.9208 33.60428 0 1 0 174.6223 660.0837 A 162.9208 33.60428 0 1 0  500.4638 660.0837 z"
   sodipodi:cx="337.54306"
   sodipodi:cy="660.08374"
   sodipodi:rx="162.920776"
   sodipodi:ry="33.6042786"
   transform="matrix(2.770758,0,0,1.098629,-99.04056,-521.7839)" /><path
   sodipodi:type="arc"
   style="font-size:12;fill:#808080;fill-rule:nonzero;stroke-width:1;fill-opacity:0.4667;stroke:url(#linearGradient732);stroke-opacity:0.4588;"
   id="path704"
   d="M 500.4638 660.0837 A 162.9208 33.60428 0 1 0 174.6223 660.0837 A 162.9208 33.60428 0 1 0  500.4638 660.0837 z"
   sodipodi:cx="337.54306"
   sodipodi:cy="660.08374"
   sodipodi:rx="162.920776"
   sodipodi:ry="33.6042786"
   transform="matrix(2.770758,0,0,1.098629,-99.0405,-420.9709)" /><path
   sodipodi:type="arc"
   style="font-size:12;fill:#808080;fill-rule:nonzero;stroke-width:1;fill-opacity:0.4667;stroke:url(#linearGradient732);stroke-opacity:0.4588;"
   id="path705"
   d="M 500.4638 660.0837 A 162.9208 33.60428 0 1 0 174.6223 660.0837 A 162.9208 33.60428 0 1 0  500.4638 660.0837 z"
   sodipodi:cx="337.54306"
   sodipodi:cy="660.08374"
   sodipodi:rx="162.920776"
   sodipodi:ry="33.6042786"
   transform="matrix(2.770758,0,0,1.098629,-99.0405,-322.5583)" /></g><path
   style="font-size:12;fill:url(#linearGradient696);fill-rule:evenodd;"
   d="M 1057.776 235.7471 L 1057.483 235.7479 L 1058.658 313.2865 L 1235.818 312.7965 L 883.1699 501.2716 L 504.3711 315.6473 L 505.8215 314.8156 L 711.9467 314.2455 L 710.7717 236.7069 L 305.5434 237.8277 L 303.2007 83.2313 L 1055.433 81.15076 L 1057.776 235.7471 z "
   id="path864" /><g
   id="g677"
   transform="matrix(1.020625,0,0,0.992695,360.261,-222.9305)"><path
   style="font-size:12;fill:#ffffff;fill-rule:evenodd;stroke:#000000;stroke-width:22.616;"
   d="M -288 314.4375 L -288 691.3125 L 394.5 691.3125 L 390.2592 447.7559 L 91.7841 447.7559 L 91.784 314.4375 L -288 314.4375 z "
   id="path895"
   transform="matrix(0.798076,0,0,0.895945,-335.9567,27.37151)"
   sodipodi:nodetypes="ccccccc" /><path
   style="font-size:12;fill:none;fill-rule:evenodd;stroke:#000000;stroke-width:19.12416;"
   d="M -1217.625 117.9803 L -978.9339 237.764 "
   id="path733"
   sodipodi:nodetypes="cc"
   transform="translate(957.3643,188.7857)" /><path
   style="font-size:12;fill:#ffffff;fill-rule:evenodd;stroke:#00ff00;stroke-width:0;stroke-opacity:0.5556;"
   d="M -1346.787 62.81964 L -1346.696 176.8854 L -1108.544 176.933 L -1346.787 62.81964 z "
   id="path737"
   sodipodi:nodetypes="cccc"
   transform="matrix(0.851896,0,0,0.893342,897.601,264.7714)" /><rect
   style="font-size:12;fill:#000000;fill-rule:evenodd;fill-opacity:1;"
   id="rect670"
   width="435.831482"
   height="54.0068588"
   x="-507.544556"
   y="561.670959"
   ry="27.0034294" /><rect
   style="font-size:12;fill:#000000;fill-rule:evenodd;fill-opacity:1;"
   id="rect671"
   width="435.831456"
   height="54.0068556"
   x="-501.926086"
   y="469.259216"
   ry="27.0034278" /><path
   style="font-size:12;fill:#000000;fill-rule:evenodd;fill-opacity:1;"
   d="M -474.9375 374.4375 C -489.875 374.4375 -501.9375 386.5 -501.9375 401.4375 C -501.9375 416.4375 -489.875 428.4375 -474.9375 428.4375 L -277 428.4375 L -277 374.4375 L -474.9375 374.4375 z "
   id="path676" /></g></svg>
