<?xml version="1.0" encoding="UTF-8" standalone="no"?>
<!DOCTYPE svg PUBLIC "-//W3C//DTD SVG 20010904//EN"
"http://www.w3.org/TR/2001/REC-SVG-20010904/DTD/svg10.dtd">
<!-- Created with Sodipodi ("http://www.sodipodi.com/") -->
<svg
   xmlns="http://www.w3.org/2000/svg"
   xmlns:sodipodi="http://sodipodi.sourceforge.net/DTD/sodipodi-0.dtd"
   xmlns:xlink="http://www.w3.org/1999/xlink"
   id="svg757"
   sodipodi:version="0.34"
   width="210mm"
   height="210mm"
   xml:space="preserve"
   sodipodi:docbase="/home/ar/src/qt/qsvn/images/svg/"
   sodipodi:docname="/home/ar/src/qt/qsvn/images/svg/actioncommit.svg"
   transform="matrix(0.427219,0,0,1,155.2967,0)"><defs
   id="defs759"><linearGradient
   id="linearGradient729"><stop
   style="stop-color:#ffffff;stop-opacity:1;"
   offset="0"
   id="stop730" /><stop
   style="stop-color:#ffffff;stop-opacity:0;"
   offset="1"
   id="stop731" /></linearGradient><linearGradient
   id="linearGradient648"><stop
   style="stop-color:#000000;stop-opacity:1;"
   offset="0"
   id="stop649" /><stop
   style="stop-color:#ffff00;stop-opacity:1;"
   offset="1"
   id="stop650" /></linearGradient><linearGradient
   xlink:href="#linearGradient648"
   id="linearGradient651"
   x1="2.45333338"
   y1="0.484375"
   x2="-1.33333486e-2"
   y2="0.46875" /><radialGradient
   xlink:href="#linearGradient729"
   id="radialGradient652" /><linearGradient
   xlink:href="#linearGradient729"
   id="linearGradient696"
   x1="0.45914415"
   y1="0"
   x2="0.50972778"
   y2="1.12499988" /><linearGradient
   xlink:href="#linearGradient729"
   id="linearGradient732"
   x1="2.00934124"
   y1="3.90623882e-2"
   x2="0.32710284"
   y2="0.79687464" /><linearGradient
   xlink:href="#linearGradient729"
   id="linearGradient733"
   x1="0"
   y1="0"
   x2="1"
   y2="0" /><radialGradient
   xlink:href="#linearGradient729"
   id="radialGradient1123"
   cx="0.49027255"
   cy="0.21874997"
   r="0.28168029"
   fx="0.49027255"
   fy="0.21874997" /></defs><sodipodi:namedview
   id="base" /><g
   id="g706"
   transform="matrix(0.927768,0,0,0.813073,99.92239,307.6376)"
   style="stroke:url(#linearGradient732);stroke-opacity:0.4588;"><path
   style="font-size:12;fill:url(#linearGradient651);fill-rule:evenodd;stroke:url(#linearGradient732);stroke-opacity:0.4588;"
   d="M 121.25 121.1875 L 121.25 624.3125 C 120.5625 625.5 120.25 626.6875 120.25 627.875 C 120.25 654.375 274.625 675.875 465.0625 675.875 C 655.5 675.875 809.875 654.375 809.875 627.875 C 809.875 627.4375 809.8125 626.9375 809.625 626.5 L 810.1875 626.5 L 810.1875 121.1875 L 121.25 121.1875 z "
   id="path667"
   transform="matrix(1.309138,0,0,0.76864,226.0661,-3.238037)" /><path
   sodipodi:type="arc"
   style="font-size:12;fill:#808080;fill-rule:evenodd;stroke-width:1;stroke:url(#linearGradient732);stroke-opacity:0.4588;"
   id="path653"
   d="M 500.4638 660.0837 A 162.9208 33.60428 0 1 0 174.6223 660.0837 A 162.9208 33.60428 0 1 0  500.4638 660.0837 z"
   sodipodi:cx="337.54306"
   sodipodi:cy="660.08374"
   sodipodi:rx="162.920776"
   sodipodi:ry="33.6042786"
   transform="matrix(2.770758,0,0,1.098629,-99.04074,-634.5985)" /><path
   sodipodi:type="arc"
   style="font-size:12;fill:#808080;fill-rule:nonzero;stroke-width:1;fill-opacity:0.4667;stroke:url(#linearGradient732);stroke-opacity:0.4588;"
   id="path702"
   d="M 500.4638 660.0837 A 162.9208 33.60428 0 1 0 174.6223 660.0837 A 162.9208 33.60428 0 1 0  500.4638 660.0837 z"
   sodipodi:cx="337.54306"
   sodipodi:cy="660.08374"
   sodipodi:rx="162.920776"
   sodipodi:ry="33.6042786"
   transform="matrix(2.770758,0,0,1.098629,-99.04056,-521.7839)" /><path
   sodipodi:type="arc"
   style="font-size:12;fill:#808080;fill-rule:nonzero;stroke-width:1;fill-opacity:0.4667;stroke:url(#linearGradient732);stroke-opacity:0.4588;"
   id="path704"
   d="M 500.4638 660.0837 A 162.9208 33.60428 0 1 0 174.6223 660.0837 A 162.9208 33.60428 0 1 0  500.4638 660.0837 z"
   sodipodi:cx="337.54306"
   sodipodi:cy="660.08374"
   sodipodi:rx="162.920776"
   sodipodi:ry="33.6042786"
   transform="matrix(2.770758,0,0,1.098629,-99.0405,-420.9709)" /><path
   sodipodi:type="arc"
   style="font-size:12;fill:#808080;fill-rule:nonzero;stroke-width:1;fill-opacity:0.4667;stroke:url(#linearGradient732);stroke-opacity:0.4588;"
   id="path705"
   d="M 500.4638 660.0837 A 162.9208 33.60428 0 1 0 174.6223 660.0837 A 162.9208 33.60428 0 1 0  500.4638 660.0837 z"
   sodipodi:cx="337.54306"
   sodipodi:cy="660.08374"
   sodipodi:rx="162.920776"
   sodipodi:ry="33.6042786"
   transform="matrix(2.770758,0,0,1.098629,-99.0405,-322.5583)" /></g><g
   id="g677"
   transform="matrix(1.020625,0,0,0.992695,360.261,-222.9305)"><path
   style="font-size:12;fill:#ffffff;fill-rule:evenodd;stroke:#000000;stroke-width:22.616;"
   d="M -288 314.4375 L -288 691.3125 L 394.5 691.3125 L 390.2592 447.7559 L 91.7841 447.7559 L 91.784 314.4375 L -288 314.4375 z "
   id="path895"
   transform="matrix(0.798076,0,0,0.895945,-335.9567,27.37151)"
   sodipodi:nodetypes="ccccccc" /><path
   style="font-size:12;fill:none;fill-rule:evenodd;stroke:#000000;stroke-width:19.12416;"
   d="M -1217.625 117.9803 L -978.9339 237.764 "
   id="path733"
   sodipodi:nodetypes="cc"
   transform="translate(957.3643,188.7857)" /><path
   style="font-size:12;fill:#ffffff;fill-rule:evenodd;stroke:#00ff00;stroke-width:0;stroke-opacity:0.5556;"
   d="M -1346.787 62.81964 L -1346.696 176.8854 L -1108.544 176.933 L -1346.787 62.81964 z "
   id="path737"
   sodipodi:nodetypes="cccc"
   transform="matrix(0.851896,0,0,0.893342,897.601,264.7714)" /><rect
   style="font-size:12;fill:#000000;fill-rule:evenodd;fill-opacity:1;"
   id="rect670"
   width="435.831482"
   height="54.0068588"
   x="-507.544556"
   y="561.670959"
   ry="27.0034294" /><rect
   style="font-size:12;fill:#000000;fill-rule:evenodd;fill-opacity:1;"
   id="rect671"
   width="435.831456"
   height="54.0068556"
   x="-501.926086"
   y="469.259216"
   ry="27.0034278" /><path
   style="font-size:12;fill:#000000;fill-rule:evenodd;fill-opacity:1;"
   d="M -474.9375 374.4375 C -489.875 374.4375 -501.9375 386.5 -501.9375 401.4375 C -501.9375 416.4375 -489.875 428.4375 -474.9375 428.4375 L -277 428.4375 L -277 374.4375 L -474.9375 374.4375 z "
   id="path676" /></g><g
   id="g1124"
   transform="translate(-1460.795,100.0392)"><path
   style="font-size:12;fill:#00cc00;fill-rule:evenodd;stroke:#008000;stroke-width:19.84224;"
   d="M 2529.629 168.4815 L 2529.304 168.4822 L 2530.609 243.5844 L 2764.034 243.1099 L 2335.564 425.662 L 1920.166 253.0717 L 1904.922 247.4656 L 2145.257 244.5133 L 2143.952 169.411 L 1693.559 170.4967 C 1576.726 170.7784 1574.123 21.03981 1690.956 20.75821 L 2527.026 18.74306 L 2529.629 168.4815 z "
   id="path864"
   sodipodi:nodetypes="cccccccccsscc" /><rect
   style="font-size:12;fill:url(#radialGradient652);fill-rule:evenodd;stroke-width:1;"
   id="rect1118"
   width="870.634775"
   height="128.99273"
   x="1640.73999"
   y="31.2401123" /><rect
   style="font-size:12;fill:url(#radialGradient652);fill-rule:evenodd;stroke-width:1;"
   id="rect1119"
   width="420.158849"
   height="301.916901"
   x="-16.8281895"
   y="-2486.5034"
   transform="matrix(-2.678706e-2,0.999641,-0.999981,-6.237177e-3,0,0)" /><path
   style="font-size:12;fill:url(#radialGradient1123);fill-rule:evenodd;stroke:none;stroke-width:1;"
   d="M 1946.016 253.2319 L 2335.228 416.4528 L 2722.395 250.8317 L 1946.016 253.2319 z "
   id="path1122"
   sodipodi:nodetypes="cccc" /></g></svg>
