<?xml version="1.0" encoding="UTF-8" standalone="no"?>
<!DOCTYPE svg PUBLIC "-//W3C//DTD SVG 20010904//EN"
"http://www.w3.org/TR/2001/REC-SVG-20010904/DTD/svg10.dtd">
<!-- Created with Sodipodi ("http://www.sodipodi.com/") -->
<svg
   xmlns="http://www.w3.org/2000/svg"
   xmlns:sodipodi="http://sodipodi.sourceforge.net/DTD/sodipodi-0.dtd"
   xmlns:xlink="http://www.w3.org/1999/xlink"
   id="svg757"
   sodipodi:version="0.34"
   width="210mm"
   height="210mm"
   xml:space="preserve"
   sodipodi:docbase="/home/ar/src/qt/qsvn/images/svg/"
   sodipodi:docname="/home/ar/src/qt/qsvn/images/svg/checkout.svg"
   transform="matrix(0.427219,0,0,1,155.2967,0)"><defs
   id="defs759"><linearGradient
   id="linearGradient729"><stop
   style="stop-color:#001900;stop-opacity:0.8;"
   offset="0"
   id="stop730" /><stop
   style="stop-color:#00bf00;stop-opacity:0.8;"
   offset="1"
   id="stop731" /></linearGradient><linearGradient
   id="linearGradient648"><stop
   style="stop-color:#000000;stop-opacity:1;"
   offset="0"
   id="stop649" /><stop
   style="stop-color:#ffff00;stop-opacity:1;"
   offset="1"
   id="stop650" /></linearGradient><linearGradient
   xlink:href="#linearGradient648"
   id="linearGradient651"
   x1="2.45333338"
   y1="0.484375"
   x2="-1.33333486e-2"
   y2="0.46875" /><radialGradient
   xlink:href="#linearGradient729"
   id="radialGradient652" /><linearGradient
   xlink:href="#linearGradient729"
   id="linearGradient696" /><linearGradient
   xlink:href="#linearGradient729"
   id="linearGradient732"
   x1="2.00934124"
   y1="3.90623882e-2"
   x2="0.32710284"
   y2="0.79687464" /><linearGradient
   xlink:href="#linearGradient729"
   id="linearGradient733"
   y2="0"
   x2="1"
   y1="0"
   x1="0" /></defs><sodipodi:namedview
   id="base" /><g
   id="g706"
   transform="matrix(0.927768,0,0,0.813073,99.92239,307.6376)"
   style="stroke:url(#linearGradient732);stroke-opacity:0.4588;"><path
   style="font-size:12;fill:url(#linearGradient651);fill-rule:evenodd;stroke:url(#linearGradient732);stroke-opacity:0.4588;"
   d="M 121.25 121.1875 L 121.25 624.3125 C 120.5625 625.5 120.25 626.6875 120.25 627.875 C 120.25 654.375 274.625 675.875 465.0625 675.875 C 655.5 675.875 809.875 654.375 809.875 627.875 C 809.875 627.4375 809.8125 626.9375 809.625 626.5 L 810.1875 626.5 L 810.1875 121.1875 L 121.25 121.1875 z "
   id="path667"
   transform="matrix(1.309138,0,0,0.76864,226.0661,-3.238037)" /><path
   sodipodi:type="arc"
   style="font-size:12;fill:#808080;fill-rule:evenodd;stroke-width:1;stroke:url(#linearGradient732);stroke-opacity:0.4588;"
   id="path653"
   d="M 500.4638 660.0837 A 162.9208 33.60428 0 1 0 174.6223 660.0837 A 162.9208 33.60428 0 1 0  500.4638 660.0837 z"
   sodipodi:cx="337.54306"
   sodipodi:cy="660.08374"
   sodipodi:rx="162.920776"
   sodipodi:ry="33.6042786"
   transform="matrix(2.770758,0,0,1.098629,-99.04074,-634.5985)" /><path
   sodipodi:type="arc"
   style="font-size:12;fill:#808080;fill-rule:nonzero;stroke-width:1;fill-opacity:0.4667;stroke:url(#linearGradient732);stroke-opacity:0.4588;"
   id="path702"
   d="M 500.4638 660.0837 A 162.9208 33.60428 0 1 0 174.6223 660.0837 A 162.9208 33.60428 0 1 0  500.4638 660.0837 z"
   sodipodi:cx="337.54306"
   sodipodi:cy="660.08374"
   sodipodi:rx="162.920776"
   sodipodi:ry="33.6042786"
   transform="matrix(2.770758,0,0,1.098629,-99.04056,-521.7839)" /><path
   sodipodi:type="arc"
   style="font-size:12;fill:#808080;fill-rule:nonzero;stroke-width:1;fill-opacity:0.4667;stroke:url(#linearGradient732);stroke-opacity:0.4588;"
   id="path704"
   d="M 500.4638 660.0837 A 162.9208 33.60428 0 1 0 174.6223 660.0837 A 162.9208 33.60428 0 1 0  500.4638 660.0837 z"
   sodipodi:cx="337.54306"
   sodipodi:cy="660.08374"
   sodipodi:rx="162.920776"
   sodipodi:ry="33.6042786"
   transform="matrix(2.770758,0,0,1.098629,-99.0405,-420.9709)" /><path
   sodipodi:type="arc"
   style="font-size:12;fill:#808080;fill-rule:nonzero;stroke-width:1;fill-opacity:0.4667;stroke:url(#linearGradient732);stroke-opacity:0.4588;"
   id="path705"
   d="M 500.4638 660.0837 A 162.9208 33.60428 0 1 0 174.6223 660.0837 A 162.9208 33.60428 0 1 0  500.4638 660.0837 z"
   sodipodi:cx="337.54306"
   sodipodi:cy="660.08374"
   sodipodi:rx="162.920776"
   sodipodi:ry="33.6042786"
   transform="matrix(2.770758,0,0,1.098629,-99.0405,-322.5583)" /></g><path
   style="font-size:12;fill:url(#linearGradient696);fill-rule:evenodd;"
   d="M 701.5635 142.3371 L 701.5635 142.4621 L 520.0635 142.4621 L 520.0635 66.77457 L 81.18849 218.6496 L 518.126 379.2746 L 520.0635 378.6496 L 520.0635 290.5871 L 701.5635 290.5871 L 701.5635 463.712 L 1063.438 463.712 L 1063.438 142.3371 L 701.5635 142.3371 z "
   id="path864" /></svg>
